<?xml version="1.0" encoding="UTF-8"?>
<svg version="1.1" xmlns="http://www.w3.org/2000/svg" width="512" height="512">
<path d="M0 0 C1.16598279 -0.0083016 1.16598279 -0.0083016 2.35552078 -0.0167709 C4.93982602 -0.03029754 7.52315189 -0.0154513 10.10743713 -0.00050354 C11.969512 -0.00429016 13.83158405 -0.00979302 15.69364929 -0.01687622 C20.74233392 -0.0308198 25.79067719 -0.01966121 30.83934283 -0.00316501 C36.14876715 0.01073745 41.45817266 0.00421818 46.76760864 0.0007019 C55.70108998 -0.00200012 64.63443701 0.01146106 73.56788635 0.03465271 C83.83432881 0.06112386 94.1005448 0.06305375 104.36700958 0.05126435 C114.29390708 0.04039617 124.22072423 0.04675271 134.14761543 0.06081963 C138.34430447 0.06651573 142.54093346 0.06654747 146.73762321 0.06175423 C182.00283909 0.03190848 217.16996287 0.63203897 249.87916565 15.50120544 C250.96753723 15.99596375 250.96753723 15.99596375 252.07789612 16.50071716 C274.70003889 27.05237028 291.65579009 44.73936386 300.62916565 68.25120544 C314.02380588 108.92140021 303.06342238 157.78258476 284.87916565 195.50120544 C276.65035406 211.69642506 266.46870743 225.46074884 253.87916565 238.50120544 C253.28877502 239.15476013 252.6983844 239.80831482 252.09010315 240.48167419 C230.20262829 264.10892269 195.66637193 275.93475514 164.94166565 281.75120544 C164.15815735 281.90234802 163.37464905 282.0534906 162.56739807 282.20921326 C146.8952412 284.95909562 131.08586695 285.65323839 115.20729065 285.73948669 C114.47592833 285.74402485 113.744566 285.748563 112.99104118 285.75323868 C106.15330329 285.79391306 99.31565728 285.81917519 92.47779846 285.80662537 C88.69145641 285.80074077 84.90585727 285.81915345 81.11966705 285.85251427 C79.69891692 285.86038053 78.2780839 285.85931262 76.85735321 285.84848976 C67.45333679 285.77971541 59.63062832 286.55548343 52.27424622 292.88128662 C45.07173339 301.29903586 45.08540445 316.78832369 43.42726135 327.30931091 C43.20054141 328.73012831 42.97349072 330.15089297 42.74613953 331.5716095 C42.1376301 335.38005124 41.53367407 339.18920187 40.93061471 342.99850988 C40.29671955 346.9974083 39.65852576 350.99562069 39.02081299 354.99391174 C37.8173131 362.54365481 36.61760767 370.09399557 35.41930884 377.6445657 C34.05343941 386.24979592 32.68327346 394.85434033 31.31276953 403.45883346 C28.49683097 421.13887219 25.68621329 438.81975304 22.87916565 456.50120544 C9.70094632 456.57075291 -3.47722926 456.62404099 -16.65559483 456.65664196 C-22.77501476 456.67228973 -28.89430901 456.69351211 -35.01365662 456.7275238 C-40.92049328 456.76014845 -46.82720914 456.77806515 -52.73412895 456.78583717 C-54.98635192 456.79137506 -57.23856836 456.8021892 -59.49073982 456.81839561 C-62.64826306 456.84021075 -65.80528875 456.8431706 -68.96287537 456.84178162 C-70.35578796 456.85796036 -70.35578796 456.85796036 -71.77684021 456.87446594 C-77.32950909 456.84808035 -81.21624542 456.16847317 -86.12083435 453.50120544 C-90.65960224 448.60411377 -91.30494241 445.69786849 -91.23500884 439.23381329 C-91.06415754 435.14472471 -90.48746483 431.17567694 -89.82192993 427.14146423 C-89.68175353 426.252595 -89.54157713 425.36372576 -89.39715296 424.4479211 C-88.92853325 421.48854775 -88.44888517 418.53107308 -87.96922302 415.57347107 C-87.62761576 413.43094955 -87.28669665 411.28831821 -86.94640732 409.14558697 C-86.01536358 403.29552977 -85.0747139 397.44705236 -84.13247752 391.59878898 C-83.12738448 385.34934736 -82.13139869 379.09845427 -81.13439941 372.84771729 C-79.42484705 362.13730652 -77.70988303 351.42777678 -75.99082947 340.71888733 C-73.41994226 324.70324083 -70.8572814 308.68628584 -68.29683128 292.6689678 C-67.40173385 287.06963211 -66.5064944 281.47031912 -65.61124541 275.87100766 C-65.38727453 274.47017779 -65.16330867 273.06934712 -64.93934785 271.66851564 C-63.36715202 261.83483901 -61.79359492 252.00138105 -60.21913616 242.16806649 C-54.81354993 208.40604685 -49.43983759 174.63916357 -44.11283898 140.86463976 C-43.31319074 135.79591953 -42.51260393 130.72734758 -41.71206665 125.6587677 C-41.09738718 121.76640954 -40.48275496 117.87404393 -39.8681488 113.98167419 C-39.71991319 113.04290286 -39.57167757 112.10413153 -39.41894996 111.13691258 C-37.68887418 100.17922691 -35.96283256 89.22092073 -34.24259537 78.26168615 C-33.18368935 71.51803567 -32.11991318 64.77516493 -31.05225688 58.03289431 C-30.33390239 53.49502257 -29.62111299 48.95633116 -28.91313726 44.41682923 C-28.38802482 41.06165852 -27.8538793 37.70793905 -27.32102966 34.35398865 C-27.05027508 32.59998875 -27.05027508 32.59998875 -26.77405071 30.8105545 C-23.48514919 10.31742266 -23.48514919 10.31742266 -16.12083435 4.50120544 C-10.80556224 1.26228107 -6.26807993 -0.08472443 0 0 Z " fill="#000000" transform="translate(128.12083435058594,-0.5012054443359375)"/>
<path d="M0 0 C3.89622007 3.58452247 6.60121547 7.22932855 9.0625 11.9375 C9.40684082 12.59282715 9.75118164 13.2481543 10.10595703 13.92333984 C13.37616766 20.37546076 15.43957764 26.93703565 17 34 C17.33644531 35.44632813 17.33644531 35.44632813 17.6796875 36.921875 C23.72062287 68.20233488 16.43061059 104.10286629 4 133 C3.70899414 133.68610352 3.41798828 134.37220703 3.11816406 135.07910156 C-10.35079314 166.42115119 -33.83761348 191.83254945 -65.3515625 205.56640625 C-79.92645366 211.29337098 -94.5306842 215.53557348 -110 218 C-110.67901367 218.11182617 -111.35802734 218.22365234 -112.05761719 218.33886719 C-120.22388649 219.62486191 -128.37374917 220.04730206 -136.62890625 220.234375 C-137.40329544 220.2525679 -138.17768463 220.2707608 -138.97554016 220.289505 C-142.90574292 220.37810263 -146.83483999 220.44615429 -150.76586914 220.4831543 C-162.48390074 220.57035973 -162.48390074 220.57035973 -172.98828125 225.40234375 C-181.17360134 234.89152013 -181.32448834 250.53558333 -183.15806389 262.45213509 C-183.6617117 265.72095697 -184.17323189 268.9884614 -184.68690491 272.25572205 C-186.1449471 281.53697432 -187.59118489 290.82003535 -189.02709961 300.10473633 C-189.90945432 305.80646211 -190.80264679 311.50640624 -191.70239449 317.20541191 C-192.04101046 319.36434004 -192.3755027 321.52391944 -192.70564079 323.68416023 C-197.11969159 352.55476216 -197.11969159 352.55476216 -206.09765625 359.7578125 C-210.00009947 362.30601977 -213.74516489 362.13685199 -218.2253418 362.11352539 C-218.95729767 362.11367142 -219.68925354 362.11381744 -220.44338989 362.1139679 C-222.86202969 362.1132714 -225.28059241 362.10549128 -227.69921875 362.09765625 C-229.37644916 362.09579114 -231.05368011 362.09436767 -232.73091125 362.09336853 C-237.14500432 362.0895507 -241.55906447 362.07972666 -245.97314453 362.06866455 C-250.47753453 362.05843467 -254.98192985 362.05386753 -259.48632812 362.04882812 C-268.32423321 362.03810375 -277.16211387 362.02103611 -286 362 C-285.37967625 351.86241601 -283.84550452 341.9338931 -282.24023438 331.91821289 C-281.955624 330.12168205 -281.67139912 328.3250901 -281.38752747 326.52844238 C-280.62085575 321.68329332 -279.84876331 316.83902252 -279.07559395 311.99490666 C-278.2655655 306.91419784 -277.46040693 301.83271725 -276.65466309 296.75132751 C-275.30247321 288.22820329 -273.94705034 279.70559856 -272.58935547 271.18334961 C-270.67467348 259.1648201 -268.76628372 247.14529742 -266.85893154 235.12560284 C-265.53601729 226.7905402 -264.21150191 218.45573188 -262.88675117 210.12096095 C-262.56591325 208.1022545 -262.24513171 206.08353909 -261.92440605 204.06481481 C-261.01096052 198.31551163 -260.09653173 192.56636673 -259.18045616 186.81748199 C-258.90317176 185.07645229 -258.62622312 183.33536907 -258.34963417 181.59422874 C-257.97218707 179.2186388 -257.5934981 176.8432501 -257.21447754 174.46791077 C-257.105235 173.77861687 -256.99599246 173.08932298 -256.88343954 172.37914139 C-256.32725707 168.902669 -255.71889639 165.4466324 -255 162 C-254.24341095 161.99413376 -253.4868219 161.98826752 -252.70730591 161.98222351 C-245.4454312 161.92341397 -238.18386599 161.85087052 -230.92227364 161.76428509 C-227.19234648 161.72025761 -223.46251189 161.68087127 -219.73242188 161.65356445 C-165.09505198 161.24140963 -107.46981379 152.39190128 -65 115 C-64.14921875 114.25878906 -63.2984375 113.51757812 -62.421875 112.75390625 C-59.91516145 110.53554165 -57.44917825 108.28164489 -55 106 C-54.24976563 105.30390625 -53.49953125 104.6078125 -52.7265625 103.890625 C-27.3087002 79.453803 -13.18313424 45.62957534 -3.68115234 12.36181641 C-2.48970757 8.23062045 -1.24303912 4.11591268 0 0 Z " fill="#000000" transform="translate(456,150)"/>
</svg>
